# xmcd
#
# Track frame offsets:
#	183
#	11050
#	23668
#	46333
#	67425
#	85248
#	103868
#	123618
#	144830
#	160100
#	186040
#	203035
#	210973
#
# Disc length: 3141 seconds
#
# Revision: 63
# Processed by: cddbd v1.5.2PL0 Copyright (c) Steve Scherf et al.
# Submitted via: VUPlayer 2.49
#
DISCID=b00c430d
DTITLE=Queen - The Miracle =1989=
DYEAR=1989
DGENRE=Rock - Pop
TTITLE0=Party
TTITLE1=Khashoggi's Ship
TTITLE2=The Miracle
TTITLE3=I Want it All
TTITLE4=The invisible Man
TTITLE5=Breakthru
TTITLE6=Rain Must Fall
TTITLE7=Scandal
TTITLE8=My Baby Does Me
TTITLE9=Was it All Worth it
TTITLE10=Hang On in There =Bonus Track=
TTITLE11=Chinese Torture =Bonus Track=
TTITLE12=The invisible Man =12'' Version==Bonus Track=
EXTD=
EXTT0=
EXTT1=
EXTT2=
EXTT3=
EXTT4=
EXTT5=
EXTT6=
EXTT7=
EXTT8=
EXTT9=
EXTT10=
EXTT11=
EXTT12=
PLAYORDER=
